<?xml version="1.0" encoding="UTF-8"?><svg version="1.1" width="64px" height="64px" viewBox="0 0 64.0 64.0" xmlns="http://www.w3.org/2000/svg" xmlns:xlink="http://www.w3.org/1999/xlink"><defs><clipPath id="i0"><path d="M32,0 C49.672429,0 64,14.3262845 64,32 C64,49.672429 49.672429,64 32,64 C14.3262845,64 0,49.672429 0,32 C0,14.3262845 14.3262845,0 32,0 Z"></path></clipPath><clipPath id="i1"><path d="M16,16 L29.1286513,29.1273274 C26.2264732,33.281248 21.4037796,36 15.9698894,36 C10.5416869,36 5.74621088,33.2869365 2.86059906,29.1403664 L16,16 Z M32,0 L32,19.9998571 C32,20.6389741 31.9622875,21.2693365 31.8889807,21.8888674 L16,6 L0.11035467,21.8908669 C0.0374780359,21.2706928 0,20.6396617 0,19.9998571 L0,0 L32,0 Z"></path></clipPath></defs><g clip-path="url(#i0)"><polygon points="0,0 64,0 64,64 0,64 0,0" stroke="none" fill="#083B6E"></polygon></g><g transform="translate(16.0 16.0)"><g clip-path="url(#i1)"><polygon points="0,0 32,0 32,36 0,36 0,0" stroke="none" fill="#F5EA14"></polygon></g></g></svg>